# xmcd
# 
# Track frame offsets:
#     200
#     19762
#     41990
# 
# Disc length: 916
# 
# Revision: 10
# Processed by: cddbd v1.5.2PL0 Copyright (c) Steve Scherf et al.
# Submitted via: fre:ac v1.0.27
# 
DISCID=20039203
DTITLE=Paula Abdul - P 3
DYEAR=1991
DGENRE=Top 40
TTITLE0=Rush Rush (7 Inch Edit)
TTITLE1=Rush Rush (Album Version)
TTITLE2=Rush Rush (Dub Edit)
EXTD=
EXTT0=
EXTT1=
EXTT2=
PLAYORDER=
